# xmcd
#
# Track frame offsets: 
#        150
#        14022
#        32645
#        44637
#        60602
#        73520
#        83700
#        95295
#        108952
#        123482
#        138230
#
# Disc length: 2099 seconds
#
# Revision: 2
# Processed by: cddbd v1.5PL3 Copyright (c) Steve Scherf et al.
# Submitted via: ExactAudioCopy v0.95a3
#
DISCID=9108310b
DTITLE=Rick Trevino - Looking For The Light
DYEAR=1995
DGENRE=Country
TTITLE0=Full Deck Of Cards
TTITLE1=Looking For The Light
TTITLE2=Family Reunion
TTITLE3=You Are To Me
TTITLE4=She Used To Say That To Me
TTITLE5=Poor, Broke, Mixed Up Mess Of A Heart
TTITLE6=I Want A Girl In A Pick-Up Truck
TTITLE7=Save This One For Me
TTITLE8=The Pain
TTITLE9=Bobbie Ann Mason
TTITLE10=San Antonio Rose To You
EXTD=
EXTT0=
EXTT1=
EXTT2=
EXTT3=
EXTT4=
EXTT5=
EXTT6=
EXTT7=
EXTT8=
EXTT9=
EXTT10=
PLAYORDER=
